<?xml version="1.0" standalone="no"?>
<!DOCTYPE svg PUBLIC "-//W3C//DTD SVG 20010904//EN"
 "http://www.w3.org/TR/2001/REC-SVG-20010904/DTD/svg10.dtd">
<svg version="1.0" xmlns="http://www.w3.org/2000/svg"
 width="512.000000pt" height="512.000000pt" viewBox="0 0 512.000000 512.000000"
 preserveAspectRatio="xMidYMid meet">

<g transform="translate(0.000000,512.000000) scale(0.100000,-0.100000)"
fill="#000000" stroke="none">
<path d="M4229 3590 c-183 -17 -336 -106 -400 -232 -36 -71 -49 -161 -49 -350
l0 -178 215 0 215 0 0 133 c0 146 10 198 45 233 33 33 97 33 129 1 42 -42 56
-166 36 -312 -36 -253 -130 -330 -420 -344 l-125 -6 -3 -242 -2 -243 195 0
195 0 0 100 0 100 48 0 c197 1 388 121 475 300 66 134 80 210 80 415 0 153 -3
192 -22 260 -54 200 -153 305 -327 348 -76 19 -189 26 -285 17z"/>
<path d="M260 3564 c0 -23 209 -1973 215 -2011 l6 -33 248 0 249 0 5 33 c3 17
25 232 49 475 23 244 46 436 50 425 5 -14 99 -893 98 -925 0 -5 113 -8 250 -8
212 0 250 2 250 15 0 8 49 468 110 1022 60 554 110 1011 110 1015 0 5 -90 8
-200 8 -152 0 -202 -3 -205 -12 -4 -14 -105 -1208 -105 -1247 0 -13 -2 -22 -5
-20 -2 3 -27 282 -55 619 -28 338 -53 625 -56 638 -4 22 -5 22 -193 22 l-190
0 -6 -52 c-10 -95 -105 -1176 -105 -1204 0 -15 -2 -25 -5 -22 -4 3 -115 1230
-115 1271 0 4 -90 7 -200 7 -177 0 -200 -2 -200 -16z"/>
<path d="M2030 2550 l0 -1030 185 0 185 0 2 720 3 719 119 -707 c65 -389 121
-713 124 -719 3 -10 50 -13 188 -13 101 0 184 1 184 3 0 20 231 1441 235 1445
3 3 5 -322 5 -721 l0 -727 185 0 185 0 0 1030 0 1030 -315 0 -314 0 -6 -32
c-3 -18 -41 -296 -85 -617 -69 -504 -90 -641 -90 -581 0 17 -159 1179 -165
1208 l-5 22 -310 0 -310 0 0 -1030z"/>
<path d="M3860 1690 l0 -170 210 0 210 0 0 170 0 170 -210 0 -210 0 0 -170z"/>
</g>
</svg>
